<svg xmlns="http://www.w3.org/2000/svg" viewBox="0 0 64 16">
  <defs/>
  <path fill="#fff" d="M26.7 10.7h2V16H30l.9-1.8v-3.5h1.9l1-1.9h-7.1v1.9zm-.3.7c0-1.7-1.1-2.6-2.7-2.6h-3.4V16h2.2v-2.1h.9l1.1 2.1h2.3l-1.3-2.5a3 3 0 00.9-2.1zm-3 .8h-1v-1.5h1c.6 0 .8.3.8.7 0 .5-.2.8-.8.8zm-7.6-3.4L12 16h2.3l.6-1h2.5l.3 1H20l-1.7-7.2h-2.5zm-.1 4.4l.8-1.6.4 1.6h-1.2zM56.9 0v1.9h2v5.3h1.2l.9-1.8V1.9h2L64 0h-7.1zm-2.6 3.4L51.9 0h-2.1v7.2H52V3.5l2.7 3.7h1.9V0h-2.2v3.4zm-9-3.4l-3.8 7.2h2.2l.6-1h2.5l.3 1h2.2L47.6 0h-2.3zm-.1 4.4l.8-1.6.4 1.6h-1.2zm-6.3 2.8H41V0h-2.2v7.2zm-5-2.8l-1-4.4h-2.2l1.7 7.2h2.3L38.5 0h-2.3l-2.3 4.4zm-3.8.9h-3.4v-.8h3.1V2.7h-3.1v-.8h3.4V0h-5.5v7.2h5.5V5.3zm-6.2-1.7c0-2.1-1.3-3.5-3.5-3.6l-1 1.8h.6c1.1 0 1.7.7 1.7 1.7 0 1.1-.7 1.7-1.7 1.7h-.7V2l-2.1 4v1.2h2.9c2.5 0 3.8-1.4 3.8-3.6z"/>
  <path fill="#00e59b" d="M10 0H7l-.2.3-1.4 2.6-.5.3H0v4h2.7l.3.3-3 5.6V16h2.9l.3-.3 1.4-2.6.4-.3h5v-4H7.3L7 8.5l3-5.6V0z"/>
</svg>