<svg xmlns="http://www.w3.org/2000/svg" id="Layer_1" x="0" y="0" version="1.1" xml:space="preserve" viewBox="0 0 70 28">
  <defs/>
  <style>
    .st0{fill:#fff}
  </style>
  <path d="M28.9 5.2h-.3c-1.3.3-2.4.6-3.6 1.1-.9.3-1.7.6-2.5 1.2-.3.2-.6.5-.9.6l-.2.2c.2.6.6.9 1.1 1.1.8.3 1.6.6 2.5.5-.3-.2-.6-.3-.8-.5-.2-.2-.2-.2-.2-.3-.3 0-.5.2-.8.2.2-.2.5-.3.8-.3 1.3-.6 2.7-.8 4.1-.9.9-.2 2-.2 3-.5 0-.2-.2-.5-.3-.6-.6-.3-.9-.9-1.3-1.4-.2-.2-.3-.4-.6-.4zm12.1 0c-.2 0-.3 0-.5.2s-.3.4-.5.6c-.2.3-.5.6-.8.9-.2 0-.2 0-.3.2-.2.2-.2.3-.2.5.9.3 1.9.3 3 .5 1.6.2 3.1.5 4.6 1.1.2 0 .3.2.3.2-.3 0-.5-.2-.8-.2 0 .2 0 .3-.2.3-.3.2-.6.2-.8.5h1.3c.8-.2 1.6-.5 2-.9.2-.2.2-.3.2-.6-.9-.8-2-1.4-3.1-1.9-1.2-.6-2.7-1.1-3.9-1.4H41zM35 1c-.2 0-.2 0 0 0-.3.8-.5 1.5-.9 2.2-.2.3-.3.5-.6.6-.6.3-1.3.5-2 .8-.2 0-.2.2-.3.2 0 0 .2.2.3.2.6.2 1.4.5 2 .8.3.2.6.6.8.9.2.5.3 1.1.6 1.5 0 .2.3 0 .3 0 .2-.5.3-1.1.5-1.5.2-.2.2-.5.3-.6.2-.2.5-.3.8-.5.2 0 .2-.2.3-.2l1.4-.5c.2 0 .3 0 .2-.2-.2 0-.2-.2-.3-.2-.6-.3-1.3-.5-1.9-.8-.3-.2-.5-.3-.6-.6-.4-.5-.6-1.3-.9-2.1zM6.7 5.8c-.5 0-.9 0-1.3.2-1.7.2-3 1.1-3.9 2.3-.6.6-.9 1.4-1.3 2.2-.2.9-.3 1.7-.3 2.6 0 .5 0 .9.2 1.4 0 .3.2.6.3.9.2.5.5.9.6 1.4 0 0 0 .2.2.2.3.5.8 1 1.4 1.3.5.5 1.1.8 1.7.9.8.4 1.7.5 2.7.5 1.4 0 3-.3 4.2-1.1.3-.2.8-.5 1.1-.8v-2.3c0-.3 0-.6.2-.9 0-.3.2-.5.5-.6.2-.2.5-.2.8-.3v-.2H7c-.2 0-.3.2-.2.2.2.2.3.2.6.2.3.3.9.5 1.3.9.2.2.2.5.2.6v2.2c0 .3 0 .8-.2 1.1-.3.3-.8.2-1.1.2-.6-.3-1.2-.6-1.7-.9-.5-.5-.8-.9-1.1-1.4-.3-.5-.5-.9-.6-1.5 0-.3-.2-.6-.2-.9 0-.6-.2-1.1 0-1.7 0-.8.2-1.4.3-2.2.2-.8.6-1.4 1.1-2 .3-.3.6-.8 1.1-.9.6-.5 1.6-.6 2.4-.5.8.2 1.6.8 2 1.4.3.5.6.9.8 1.4-.2.5 0 .6 0 .9 0 .2 0 .3.2.5.1-.3.1-.8.1-1.3V8.6c0-.5 0-.9-.2-1.2-.8 0-1.6-.3-2.2-.6-.7-.7-1.8-1-2.9-1z" class="st0"/>
  <path d="M13.1 10.1c.2.3.5.5.8.8.2.6.2 1.1.2 1.7v2.9c.3-.3.6-.6.9-.8.5-.3.8-.6 1.3-.8v-2.2c0-.3.3-.5.5-.5h1.6c.5 0 .8.2 1.1.5.5.3.6.8.8 1.4v-.2c0-.5 0-.9-.2-1.2-.2-.5-.2-.8-.3-1.2-1.6 0-3 0-4.6-.2-.3 0-1.1-.2-1.7-.3-.1.1-.4.1-.4.1z" class="st0"/>
  <path d="M18.9 13.7h-.5c-1.6.2-3 .8-4.1 1.7-.5.3-.8.8-1.1 1.1-.3.3-.5.8-.6 1.1.5-.3.9-.5 1.4-.8h.2v.2c0 .3 0 .8-.2 1.1-.3.5-.8.9-1.3 1.2.3 0 .6-.2.9-.2.8-.2 1.7-.3 2.7-.3h4.1l.5-1.4c0-.3.2-.8.2-1.1 0-.2 0-.2-.2-.3-.2.5-.5.9-.8 1.2s-.9.6-1.4.6H17c-.2 0-.3-.2-.3-.2 0-.2-.2-.2-.2-.3v-1.7h.3c.2 0 .5-.2.6-.2 1.1-.2 2.2-.3 3.3-.3h.3c0-.2-.2-.3-.3-.5s-.5-.2-.6-.3c-.3-.3-.3-.8-.2-1.1-.5.5-.8.5-1 .5zm9.8-2.9h-1.9c-.2.2.2.2.3.3.5.2.6.8.5 1.2V16c-.2-.2-.2-.3-.3-.3-.3-.5-.8-.9-1.1-1.4-.2-.3-.5-.6-.6-.9-.2-.3-.5-.5-.6-.8l-1.4-1.9h-2.4v.2c.2.2.5.2.6.5.3.3.2.8.2 1.2v6c0 .2-.2.3-.3.3-.2.2-.3.2-.5.3v.2H25c0-.2-.2-.3-.3-.3-.3-.2-.5-.3-.5-.6v-4.9l.5.5c.2.2.3.5.5.6.3.3.6.8.9 1.1.3.3.5.6.8.9.3.5.8.9 1.1 1.4.3.5.6.8.9 1.2.2.2.3.5.6.6.3.3.8.5 1.1.5 0-.2-.2-.3-.3-.6 0-.3-.2-.5-.3-.8 0-.3 0-.5-.2-.8v-5.9c0-.5.2-.8.5-1.1.2-.2.3-.2.3-.3-.6-.1-1.3-.1-1.9-.1zm6-1.9h-.5c-.9.2-1.7.6-2.2 1.2l-.5.9c-.2.6 0 1.2.2 1.9.2.5.3.8.6 1.1s.8.6 1.3.9c.9.6 1.9 1.2 2.7 1.9.3.2.5.5.5.8s0 .6-.2.8c-.2.3-.5.6-.8.8-.3.2-.8.2-1.1.2-.2 0-.3 0-.6-.2l-.9-.5-.3-.3-.2-.2-.3-.3c-.2-.2-.3-.5-.5-.8-.3-.3-.5-.8-.6-1.2-.2.3-.2.8-.2 1.2v.3c0 .3 0 .8.2 1.1.2.5.3.9.6 1.2.5-.3 1.1-.3 1.6 0 .8.3 1.7.3 2.5.2.3 0 .8-.2 1.1-.3.5-.2.9-.5 1.3-.9s.5-.9.5-1.4v-.8c0-.6-.2-1.1-.5-1.7-.2-.3-.5-.6-.6-.8-.6-.5-1.3-.9-2-1.4-.6-.5-1.3-.8-1.9-1.2-.3-.3-.6-.8-.5-1.2 0-.3.2-.5.5-.6.5-.3.9-.3 1.4-.2.6 0 1.1.3 1.6.8.3.3.3.6.6.9.3.5.8.8 1.3.9 0-.3-.2-.5-.2-.8-.2-.3-.3-.6-.5-1.1s-.5-.8-.6-1.1c-.3.2-.8.2-1.1 0-.8.1-1.3-.1-1.7-.1zm8.3 1.9h-3.8c0 .2.3.3.5.3.3.2.5.8.5 1.1v6c0 .3-.2.6-.2.9-.2.5-.6.8-.9 1.1 1.1 0 1.9-.6 3-.8.3 0 .8-.2 1.3-.2 0-.2-.2-.3-.3-.3-.3-.2-.5-.5-.5-.9v-1.9c0-.3.2-.5.5-.5h2.7s.2 0 .2.2V18c0 .3-.2.8-.5.9-.2 0-.3.2-.3.3H49c.2-.2-.2-.2-.3-.3-.3-.2-.5-.5-.5-.8v-5.9c0-.3 0-.6.2-.8l.5-.5c.2 0 .3-.2.2-.3h-3.8c0 .2.2.3.3.3 0 .2 0 .5.2.8v1.9c0 .2-.2.3-.2.5-.2 0-.2.2-.3.2h-2.5c-.2 0-.5-.2-.5-.3v-1.7c0-.5 0-.9.5-1.2-.1-.2.2-.2.2-.3z" class="st0"/>
  <path d="M50.2 13.7h-.3c-.2 0-.2 0-.3.2 0 .3.2.6 0 .9 0 .2-.2.2-.3.3-.3 0-.6.2-.8.5v.2c.9 0 1.7 0 2.7.2v-2c-.3-.2-.6-.3-1-.3zm3.7 1.2v1.5c.9.3 1.7.8 2.5 1.2-.3-.6-.6-1.2-1.1-1.7-.3-.2-.8-.7-1.4-1z" class="st0"/>
  <path d="M51.3 10.8H50v.2c.3.2.8.2 1.1.5.3.2.3.6.3.9v5.9c-.2.5-.6.8-1.1.8-.2 0-.3 0-.3.3h5c.2 0 .3 0 .3-.2-.2-.2-.5-.2-.6-.2-.3-.2-.6-.3-.8-.5v-5.9c0-.3 0-.6.2-.9.2-.3.6-.5.9-.6.2 0 .3 0 .3-.3h-4zm18.6-4.2c-.5 0-1.1.2-1.6.3-1.4.3-2.8.6-4.4.9-.2 0-.2.2-.2.2.3.2.8.2.9.5.4.3.4.7.4 1.2v4.5c-.6-.5-1.3-1.1-1.9-1.5-.6-.6-1.3-1.1-1.9-1.5-.8-.6-1.6-1.2-2.4-2-.8.2-1.7.3-2.5.3-.2 0-.5 0-.3.2s.5.2.8.3c.5.2.6.6.6 1.1v6.2c0 .3 0 .8-.2 1.1-.2.3-.5.6-.8.8-.2.2-.3.2-.5.3 0 .2.2.2.3.2H62c.2-.2 0-.2-.2-.2-.3-.2-.6-.3-.9-.6-.3-.3-.3-.8-.3-1.1v-5.1c.3.2.5.5.8.6.6 0 .9.3 1.4.6.8.6 1.6 1.2 2.4 2v.2c0 .5 0 .9.2 1.4.2.3.2.6.3.8.2.3.3.6.6.9.5.6 1.1.9 1.7 1.2.2 0 .3.2.3 0V8.6c0-.8.5-1.4 1.1-1.7.3-.2.5-.2.5-.3zM16.4 22h-2.5c0 .2.2.2.3.2.3 0 .5.3.5.6V25c0 .3-.2.5-.5.6-.2 0-.3 0-.3.2h2.8c-.2 0-.3-.2-.5-.2-.2-.2-.5-.3-.5-.6v-2c0-.2 0-.3.2-.5s.5-.2.5-.5c.2-.1 0 0 0 0zm5.4 0h-1.9v.2c.3.2.6.3.6.6v2.3c0 .3-.2.5-.5.6-.2 0-.3 0-.3.2h1.6c-.2-.2-.3-.2-.5-.3-.2-.2-.2-.3-.2-.5v-2c.2.3.2.6.3.8v.1c.3.6.6 1.2.9 2 .2-.2.3-.3.3-.5.3-.8.8-1.5 1.1-2.5v2c0 .2 0 .5-.2.6-.2.2-.3.2-.3.3h2.5c-.2-.2-.5-.2-.6-.3-.2-.2-.2-.3-.2-.5v-2.2c0-.3.2-.5.3-.6.2 0 .3 0 .3-.2h-1.9c-.3.6-.6 1.4-.9 2 0-.8-.1-1.5-.4-2.1zm7.1 0h-.3c.2.2.2.2.3.2.2.2.3.3.3.6V25c0 .3-.2.5-.5.6-.2 0-.3 0-.3.2h2.8c0-.2-.2-.2-.3-.2-.3 0-.5-.3-.5-.5v-.8c.5 0 .8 0 1.3-.2.3-.2.6-.3.8-.8.2-.3 0-.6-.2-.9-.3-.2-.9-.4-1.4-.4h-2c.1 0 .1 0 0 0zm1.7.2c.3 0 .6.3.8.6.2.3 0 .6-.3.9l-.2.2h-.3v-1.7zm7.1-.3c0 .2.2.3.2.3l-.5.9s0 .2-.2.2c-.3.6-.5 1.2-.8 1.7-.2.2-.2.3-.5.3-.2 0-.3 0-.3.2h1.7c-.2-.2-.5-.2-.6-.3 0-.3.2-.5.3-.8h1.6c.2.2.2.5.3.6 0 .2 0 .3-.2.3s-.3 0-.3.2H41c0-.2-.2-.2-.3-.2-.2 0-.3-.3-.5-.5l-1.4-3.2c-.4.3-.7.3-1.1.3zm.3.7c.2.5.5.9.6 1.4h-1.3c.4-.3.5-.9.7-1.4zm8.5-.6c-.5 0-.8.2-1.3.3-.5.3-.9.8-.9 1.4 0 .3 0 .6.2.9v.2c.3.6 1.1 1.1 1.7 1.1.6 0 1.3-.2 1.7-.6.2-.2.3-.5.3-.6l-.5.5c-.5.5-1.4.3-1.9-.2-.6-.6-.6-1.9.2-2.3.5-.3 1.1-.3 1.6.2.2.2.3.5.5.6v-1.1h-.5c-.2 0-.3-.2-.5-.2-.2-.2-.5-.2-.6-.2zm5.2 0v1.1s.2 0 .2-.2c.2-.2.2-.3.3-.5.3-.2.6-.2 1.1-.2v2.5c0 .3-.2.5-.5.6-.2 0-.3 0-.3.2h2.8c-.2-.2-.5-.2-.6-.3-.3-.3-.2-.8-.2-1.2v-1.9c.3 0 .8 0 1.1.2.2.2.2.5.3.5v-1.2c-1.4.4-2.8.4-4.2.4z" class="st0"/>
</svg>