<svg xmlns="http://www.w3.org/2000/svg" viewBox="0 0 16 16">
  <defs/>
  <path fill="#fff" fill-rule="evenodd" d="M8 0a8 8 0 00-8 8 8 8 0 005.5 7.6c.4.1.5-.2.5-.4v-1.4c-2.2.5-2.7-1.1-2.7-1.1-.4-.9-.9-1.2-.9-1.2-.7-.5.1-.5.1-.5.8.1 1.2.8 1.2.8.7 1.2 1.9.9 2.3.7.1-.5.3-.9.5-1.1-1.8-.2-3.6-.9-3.6-4 0-.9.3-1.6.8-2.1-.1-.2-.4-1 .1-2.1 0 0 .7-.2 2.2.8l2-.1c.7 0 1.4.1 2 .3 1.5-1 2.2-.8 2.2-.8.4 1.1.2 1.9.1 2.1.5.6.8 1.3.8 2.1 0 3.1-1.9 3.8-3.6 3.9.2.3.5.8.5 1.5v2.2c0 .2.1.5.6.4 3.2-1 5.5-4 5.5-7.6C16 3.6 12.4 0 8 0" clip-rule="evenodd"/>
</svg>