<svg xmlns="http://www.w3.org/2000/svg" viewBox="0 0 45 15.5">
  <defs/>
  <path fill="#607988" d="M41.6 4V2.5h-7.1V.1h-2.3v2.4h-4.6V4h9.1c-.5 1.7-1.6 3.3-2.6 4.6-1.9-2.2-1.9-2.9-1.9-2.9h-1.9s.1 1.1 2.7 4.1c-.8.9-1.5 1.4-1.5 1.4L32 13l2-2 4.4 4.4 1.2-1.2c-2-1.8-3.5-3.3-4.5-4.4C36.6 8.1 38 5.9 38.4 4h3.2z"/>
  <path fill="#fff" d="M16.4 8.8c-.1 1.3-1.2 3.2-3.9 3.2-2.3 0-4.2-1.9-4.2-4.3s1.9-4.3 4.2-4.3c1.3 0 2.2.6 2.7 1L17 2.8a6.6 6.6 0 10-4.4 11.5c3.8 0 6.4-2.7 6.4-6.5l-.2-1.4h-6.2v2.3l3.8.1z"/>
</svg>
