<svg xmlns="http://www.w3.org/2000/svg" viewBox="0 0 16 6">
  <defs/>
  <path fill="#fff" d="M15.6 1.4c-.2 0-.5.1-.7.3-.1-.2-.3-.3-.5-.3-.3 0-.5.2-.5.6v1.7c0 .4.2.6.5.6s.5-.2.5-.6v-.8c0-.3 0-.4.3-.5.1 0 .2-.1.3-.1.3-.1.5-.2.5-.4.1-.3-.1-.5-.4-.5zm-2.7 0c-.3 0-.5.2-.5.6v1c0 .4-.1.6-.5.6s-.5-.2-.5-.6V2c0-.4-.2-.6-.5-.6s-.5.2-.5.6v1.1c0 .8.5 1.3 1.5 1.3.9 0 1.5-.4 1.5-1.3V2c0-.4-.1-.6-.5-.6zm-3.4 0c-.1 0-.3.1-.4.3-.2-.2-.4-.3-.8-.3-.8 0-1.5.6-1.5 1.5s.6 1.5 1.4 1.5c.4 0 .7-.1.9-.4v.1c0 .5-.3.7-.8.7-.3.1-.5 0-.7 0-.1 0-.2-.1-.3-.1-.2 0-.4.1-.4.3 0 .3.5.6 1.4.6.7 0 1.2-.2 1.5-.6.2-.3.2-.8.2-1.3V2c0-.4-.1-.6-.5-.6zm-1 2.2c-.4 0-.7-.3-.7-.7s.3-.7.6-.7c.4 0 .7.3.7.7s-.3.7-.6.7zM5.3 1.4c-.4 0-.7.1-1 .4-.3-.3-.6-.4-1-.4-.3 0-.6.1-.8.3-.1-.2-.2-.3-.4-.3-.3 0-.5.2-.5.6v1.7c0 .4.2.6.5.6s.5-.2.5-.6v-1c0-.4.1-.6.5-.6.3 0 .4.2.4.7v1c0 .4.2.6.5.6s.5-.2.5-.6v-1c0-.4.1-.6.5-.6.3 0 .4.2.4.7v1c0 .4.1.6.5.6.3 0 .5-.2.5-.6V2.5c0-.7-.4-1.1-1.1-1.1zm-4.7 0c-.3 0-.5.2-.5.6v1.7c0 .4.2.6.5.6s.5-.2.5-.6V2c0-.4-.2-.6-.5-.6z"/>
  <ellipse cx=".6" cy=".5" fill="#1bb76e" rx=".6" ry=".5"/>
</svg>
