<svg xmlns="http://www.w3.org/2000/svg" viewBox="0 0 64 23">
  <defs/>
  <path fill="#fff" d="M61.8 5.4c-.8 0-2 .4-2.8 1.2a2.2 2.2 0 00-2-1.2c-1.2 0-2 .8-2 2.4v6.7c0 1.6.8 2.4 2 2.4s2-.8 2-2.4v-3.2c0-1.2 0-1.6 1.2-2 .4 0 .8-.4 1.2-.4 1.2-.4 2-.8 2-1.6.4-1.2-.4-1.9-1.6-1.9zm-10.7 0c-1.2 0-2 .8-2 2.4v4c0 1.6-.4 2.4-2 2.4s-2-.8-2-2.4v-4c0-1.6-.8-2.4-2-2.4s-2 .8-2 2.4v4.4c0 3.2 2 5.1 5.9 5.1 3.6 0 5.9-1.6 5.9-5.1V7.7c.2-1.6-.2-2.3-1.8-2.3zm-13.4 0c-.4 0-1.2.4-1.6 1.2-.8-.8-1.6-1.2-3.2-1.2-3.2 0-5.9 2.4-5.9 5.9s2.4 5.9 5.5 5.9c1.6 0 2.8-.4 3.6-1.6v.4c0 2-1.3 2.8-3.2 3-1.3.2-2-.1-2.7-.2-.4-.1-.9-.4-1.3-.4-.8 0-1.6.4-1.6 1.2 0 1.2 2 2.4 5.5 2.4 2.8 0 4.7-.8 5.9-2.4.8-1.2.8-3.2.8-5.1V7.7c.2-1.6-.2-2.3-1.8-2.3zm-4 8.7c-1.6 0-2.8-1.2-2.8-2.8s1.2-2.8 2.4-2.8c1.6 0 2.8 1.2 2.8 2.8s-1.2 2.8-2.4 2.8zM21.1 5.4c-1.6 0-2.8.4-4 1.6a5.1 5.1 0 00-4-1.6c-1.2 0-2.4.4-3.2 1.2-.3-.9-.7-1.2-1.5-1.2-1.2 0-2 .8-2 2.4v6.7c0 1.6.8 2.4 2 2.4s2-.8 2-2.4v-4c0-1.6.4-2.4 2-2.4 1.2 0 1.6.8 1.6 2.8v4c0 1.6.8 2.4 2 2.4s2-.8 2-2.4v-4c0-1.6.4-2.4 2-2.4 1.2 0 1.6.8 1.6 2.8v4c0 1.6.4 2.4 2 2.4 1.2 0 2-.8 2-2.4V9.7c-.2-2.8-1.8-4.3-4.5-4.3zm-18.6 0c-1.2 0-2 .8-2 2.4v6.7c0 1.6.8 2.4 2 2.4s2-.8 2-2.4V7.7c0-1.6-.8-2.3-2-2.3z"/>
  <ellipse cx="2.5" cy="2" fill="#1bb76e" rx="2.4" ry="2"/>
</svg>