<svg xmlns="http://www.w3.org/2000/svg" id="svg2" x="0" y="0" version="1.1" viewBox="0 0 64 26" xml:space="preserve">
  <defs/>
  <style>
    .st0{fill:#fff}
  </style>
  <path id="path3003" d="M6.7 15.7V8.3c0-.9.2-1.5.5-2s.7-.6 1.4-.6c.4 0 .7.1 1 .3.3.2.6.5.8.9.4-.5.8-.7 1.3-.9a4.65 4.65 0 013.8.2c.7.3 1.1.7 1.6 1.3.6-.6 1.1-1.1 1.8-1.4.6-.3 1.3-.4 2.1-.4 1.3 0 2.4.5 3.2 1.3.7.8 1.1 2 1.1 3.6v5.3c0 .9-.2 1.5-.5 2s-.7.6-1.4.6-1.1-.2-1.4-.6c-.3-.5-.5-1.1-.5-2v-4.2c0-1-.1-1.6-.4-2.1-.3-.5-.7-.6-1.3-.6-.7 0-1.1.2-1.4.6-.2.4-.4 1-.4 2v4.2c0 .9-.2 1.5-.5 2s-.7.6-1.4.6-1.1-.2-1.4-.6c-.3-.5-.5-1.1-.5-2v-4.2c0-1-.1-1.6-.4-2.1-.3-.5-.7-.6-1.3-.6-.7 0-1.1.2-1.4.6-.3.5-.5 1.1-.5 2.1v4.2c0 .9-.2 1.5-.5 2s-.7.6-1.4.6-1.1-.2-1.4-.6c-.4-.5-.6-1.2-.6-2.1z" class="st0"/>
  <path id="path3005" d="M35.9 16.7c-.4.5-.9 1-1.5 1.3s-1.2.5-2 .5c-1.5 0-2.8-.6-3.8-1.8S27 14 27 12.1s.6-3.4 1.7-4.6c1.1-1.3 2.5-1.9 4.2-1.9.7 0 1.2.1 1.7.4.5.2.9.5 1.3 1 .2-.4.5-.6.7-.8.3-.2.6-.3.9-.3.7 0 1.1.2 1.4.6.3.5.5 1.1.5 2v7.4c0 1.4-.1 2.5-.2 3.2-.1.7-.4 1.4-.7 1.9-.6.9-1.3 1.5-2.2 2.1-.9.5-2.1.7-3.4.7-1.6 0-3-.3-4-.7-1-.5-1.6-1.2-1.6-1.9 0-.5.2-.8.5-1.2.3-.3.7-.5 1.1-.5.2 0 .7.2 1.6.5.8.4 1.7.5 2.4.5.9 0 1.7-.3 2.1-.8.6-.5.7-1.3.7-2.3v-.2c.2-.4.2-.5.2-.5zm-5-4.6c0 .9.2 1.6.7 2.3.5.5 1 .8 1.8.8.7 0 1.3-.3 1.8-.8s.7-1.3.7-2.2-.4-1.7-.9-2.2-1-.8-1.8-.8c-.7 0-1.3.3-1.8.8-.3.4-.5 1.2-.5 2.1z" class="st0"/>
  <path id="path3009" d="M55.8 15.7V8.3c0-.9.2-1.5.5-2s.7-.6 1.4-.6c.4 0 .7.1 1 .3s.6.5.7.9c.4-.5.8-.7 1.2-.9.5-.2.8-.3 1.3-.3.6 0 .9.2 1.3.5.4.4.6.8.6 1.3 0 .7-.7 1.4-2.1 1.8-.5.2-.8.4-1.1.5-.5.2-.7.5-.9.7s-.3.7-.3 1.5v3.8c0 .9-.2 1.5-.5 2s-.7.6-1.4.6-1.1-.2-1.4-.6c-.2-.4-.3-1.2-.3-2.1z" class="st0"/>
  <path id="path3007" d="M41.9 13.3v-5c0-.9.2-1.5.5-2s.7-.6 1.4-.6 1.1.2 1.4.6.5 1.1.5 2v4.2c0 1 .2 1.6.5 2.1.3.4.8.6 1.5.6s1.2-.2 1.5-.6c.3-.4.5-1.1.5-2.1V8.3c0-.9.2-1.5.5-2s.7-.6 1.4-.6 1.1.2 1.4.6.5 1.1.5 2v4.9c0 1.7-.5 3.1-1.5 4-.9.9-2.4 1.4-4.2 1.4-1.9 0-3.3-.5-4.2-1.4-1.2-.8-1.7-2.2-1.7-3.9z" class="st0"/>
  <path id="path3001" d="M4 15.7c0 .9-.2 1.5-.5 2s-.7.6-1.4.6-1.1-.1-1.4-.6-.5-1.1-.5-2V8.3c0-.9.2-1.5.5-2s.7-.6 1.4-.6 1.1.2 1.4.6.5 1.1.5 2v7.4z" class="st0"/>
  <path id="path3001-4" fill="#89c623" d="M0 2.6c0-.5.2-1.1.7-1.5S1.6.5 2.3.5c.6 0 1.1.2 1.5.6s.6.9.6 1.5-.2 1.1-.7 1.6-.9.6-1.5.6c-.7 0-1.1-.2-1.6-.6S0 3.2 0 2.6z"/>
</svg>
