<svg xmlns="http://www.w3.org/2000/svg" viewBox="0 0 16 16">
  <defs/>
  <path fill="#fff" fill-rule="evenodd" d="M8 0H4.7c-.9 0-1.4.2-1.9.4s-1 .5-1.4.9c-.5.5-.8.9-1 1.5-.2.5-.3 1-.4 1.9v6.6c0 .9.2 1.4.4 1.9s.5 1 .9 1.4c.4.4.9.7 1.4.9.5.2 1.1.3 1.9.4h6.6c.9 0 1.4-.2 1.9-.4s1-.5 1.4-.9c.4-.4.7-.9.9-1.4.2-.5.3-1.1.4-1.9V4.7c0-.9-.2-1.4-.4-1.9s-.5-1-.9-1.4c-.4-.4-.9-.7-1.4-.9-.5-.2-1.1-.3-1.9-.4-.8-.1-1-.1-3.2-.1zm0 1.4h3.2c.8 0 1.2.2 1.5.3.4.1.6.3.9.6s.5.5.6.9c.1.3.2.7.3 1.5v3.2c0 2.1 0 2.4-.1 3.2 0 .8-.2 1.2-.3 1.5-.1.4-.3.6-.6.9-.3.3-.6.5-.9.6-.3.1-.7.2-1.5.3H7.9c-2.1 0-2.4 0-3.2-.1-.8 0-1.2-.2-1.5-.3-.4-.1-.6-.3-.9-.6-.3-.3-.5-.6-.6-.9-.1-.3-.2-.7-.3-1.5V4.6c0-.8.2-1.2.3-1.5.2-.2.3-.5.6-.8s.5-.5.9-.6c.3-.1.7-.2 1.5-.3H8zm0 2.5C5.7 3.9 3.9 5.7 3.9 8s1.8 4.1 4.1 4.1 4.1-1.8 4.1-4.1S10.3 3.9 8 3.9zm0 6.8c-1.5 0-2.7-1.2-2.7-2.7S6.5 5.3 8 5.3s2.7 1.2 2.7 2.7-1.2 2.7-2.7 2.7zm5.2-7c0 .5-.4 1-1 1s-1-.4-1-1 .4-1 1-1 1 .5 1 1z" clip-rule="evenodd"/>
</svg>