<svg xmlns="http://www.w3.org/2000/svg" viewBox="0 0 13 16"><defs/><path fill="#fff" d="M6.9 0C2.5 0 .3 3.1.3 5.7c0 1.6.6 3 1.9 3.5.2.1.4 0 .5-.2 0-.2.1-.6.2-.7.1-.2 0-.3-.1-.5-.5-.5-.7-1-.7-1.8 0-2.3 1.8-4.4 4.6-4.4 2.5 0 3.9 1.5 3.9 3.5 0 2.6-1.2 4.9-2.9 4.9-1 0-1.7-.8-1.5-1.8.2-1.2.7-2.4.7-3.3 0-.8-.4-1.4-1.3-1.4-1 0-1.8 1-1.8 2.4 0 .9.3 1.5.3 1.5s-1 4.3-1.2 5c-.4 1.5-.1 3.3 0 3.5 0 .1.2.1.3.1.1-.1 1.3-1.6 1.7-3 .1-.4.7-2.5.7-2.5.3.6 1.3 1.1 2.3 1.1 3 0 5-2.7 5-6.3-.1-2.8-2.5-5.3-6-5.3z"/></svg>