<svg xmlns="http://www.w3.org/2000/svg" viewBox="0 0 16 15.5">
  <defs/>
  <path fill="#fff" d="M16 7.2c0-1-.8-1.7-1.7-1.7-.5 0-.9.2-1.2.5a8.3 8.3 0 00-4.8-1.5L9.1.7l2.6.6c0 .7.6 1.2 1.2 1.2.7 0 1.2-.6 1.2-1.2 0-.7-.6-1.2-1.2-1.2-.5 0-.9.3-1.1.7L9 0h-.2c-.1.1-.2.2-.2.3l-.9 4.2C5.9 4.5 4.2 5.1 3 6c-.3-.3-.8-.5-1.3-.5-.9 0-1.7.8-1.7 1.7 0 .7.4 1.3 1 1.6v.5c0 2.7 3.1 4.9 7 4.9s7-2.2 7-4.9v-.5c.6-.3 1-.9 1-1.6zM4 8.5c0-.7.6-1.2 1.2-1.2.7 0 1.2.6 1.2 1.2s-.6 1.2-1.2 1.2C4.5 9.7 4 9.2 4 8.5zm7 3.3c-.9.9-2.5.9-3 .9s-2.1-.1-3-.9c-.1-.1-.1-.3 0-.5.1-.1.3-.1.5 0 .5.6 1.7.7 2.5.7s2-.2 2.5-.7c.1-.1.3-.1.5 0 .1.1.1.3 0 .5zm-.3-2.1c-.7 0-1.2-.6-1.2-1.2s.6-1.2 1.2-1.2c.7 0 1.2.6 1.2 1.2.1.7-.5 1.2-1.2 1.2z"/>
</svg>
