<svg xmlns="http://www.w3.org/2000/svg" viewBox="0 0 45 45">
  <defs/>
  <path fill="#25F4EE" d="M18.3 17.8V16c-.6-.1-1.2-.1-1.8-.1C9 15.9 2.9 22 2.9 29.5c0 4.6 2.4 8.7 5.8 11.1l-.1-.1c-2.2-2.4-3.4-5.6-3.4-9 0-7.6 5.9-13.5 13.1-13.7zm16.5-9.1c1.5 1.6 3.4 3 5.6 3.4v-1.8c-2.1 0-4-.6-5.6-1.6zM30 .1h-7.4v29.6a6.1 6.1 0 01-6.2 5.9c-1 0-2.1-.3-2.8-.7 1.2 1.6 3 2.8 5 2.8 3.4 0 6.1-2.7 6.2-6.1V1.8h5.5c-.1-.5-.3-1-.3-1.7z"/>
  <path fill="#FE2C55" d="M13.6 34.9c-.7-1-1-2.2-1-3.6 0-3.4 2.8-6.2 6.2-6.2.6 0 1.2.1 1.8.3v-7.5c-.6-.1-2.2 0-2.2 0l.1 5.5c-.7-.2-1.3-.1-1.9-.1-3.4 0-6.4 2.8-6.2 6.2.1 3 1.3 4.3 3.2 5.4zM34.8 8.7a9.99 9.99 0 01-2.5-6.8h-2.1c.6 2.9 2.3 5.3 4.6 6.8zm5.6 3.2v5.8c-3.8 0-7.4-1.2-10.2-3.3v15.1c0 7.5-6.1 13.6-13.6 13.6-3 0-5.6-.9-7.8-2.4 2.5 2.7 6.1 4.3 9.9 4.3 7.5 0 13.6-6.1 13.6-13.6v-15c3 2.1 6.5 3.3 10.2 3.3v-7.4c-.6-.1-1.4-.2-2.1-.4z"/>
  <path fill="#FFF" d="M34.8 8.7c-2.4-1.5-4-4-4.4-6.8h-5.5v29.6a6.1 6.1 0 01-6.2 5.9c-2.1 0-3.8-1-5-2.5-1.9-.9-3.2-3-3.3-5.3 0-3.4 2.8-5.7 6.2-6.2.5-.1 1.3-.1 1.9 0l-.1-5.5C10.9 18 5 24.1 5 31.5c0 3.6 1.3 6.8 3.7 9.3 2.2 1.5 4.9 2.5 7.8 2.5 7.5-.1 13.6-6.4 13.6-13.8V14.4c3 2.1 6.5 3.3 10.2 3.3v-5.8c-2.1-.4-4.1-1.6-5.5-3.2z"/>
</svg>