<svg xmlns="http://www.w3.org/2000/svg" viewBox="0 0 17 9.5">
  <defs/>
  <path fill="#fff" fill-rule="evenodd" d="M15.6.6c.1-.4 0-.6-.5-.6h-1.8c-.4 0-.7.2-.8.5 0 0-.9 2.2-2.2 3.6-.3.4-.5.5-.7.5-.1 0-.3-.1-.3-.5V.6c.1-.4-.1-.6-.4-.6H6.1c-.3 0-.4.2-.4.4 0 .4.6.5.7 1.7v2.6c0 .6-.1.7-.3.7-.6 0-2-2.2-2.9-4.7C3 .2 2.8 0 2.4 0H.6C.1 0 0 .2 0 .5c0 .5.6 2.8 2.8 5.8 1.4 2.1 3.5 3.2 5.3 3.2 1.1 0 1.3-.3 1.3-.7V7.3c0-.5.1-.6.5-.6.3 0 .7.1 1.7 1.1C12.8 9 13 9.5 13.7 9.5h1.8c.5 0 .8-.3.6-.7-.2-.5-.7-1.2-1.5-2.1-.4-.5-1-1-1.2-1.3-.3-.3-.2-.5 0-.8-.1.1 2-2.9 2.2-4z" clip-rule="evenodd"/>
</svg>